<?xml version="1.0" encoding="UTF-8"?>
<svg xmlns="http://www.w3.org/2000/svg"
     xmlns:xlink="http://www.w3.org/1999/xlink"
     version="1.2"
     width="37.5mm" height="37.5mm" viewBox="0 0 37.5 37.5"
     stroke="none"
     fill="#000000"
     stroke-width="0.3"
     font-size="3.88"
>
<defs>
  <marker id="arrow" markerWidth="15" markerHeight="7" refX="5" refY="3.5" orient="auto" markerUnits="strokeWidth">
    <path d="M0,0 L15,3.5 L0,7 z" stroke="context-stroke" fill="context-stroke"/>
  </marker>
</defs>
<g stroke-width="0.95" fill="#000000" fill-opacity="0.000" stroke="#D3D3D3" id="img-e6e2181c-1">
  <g transform="translate(24.55,21.77)">
    <path fill="none" d="M-1.12,0.77 L1.12,-0.77 " class="primitive"/>
  </g>
  <g transform="translate(20.45,25.3)">
    <path fill="none" d="M1.12,-1.17 L-1.12,1.17 " class="primitive"/>
  </g>
  <g transform="translate(14.11,30.93)">
    <path fill="none" d="M-0.04,0.65 L0.04,-0.65 " class="primitive"/>
  </g>
  <g transform="translate(16.1,32.51)">
    <path fill="none" d="M-0.87,0.12 L0.87,-0.12 " class="primitive"/>
  </g>
  <g transform="translate(28.92,19.7)">
    <path fill="none" d="M1.04,-0.28 L-1.04,0.28 " class="primitive"/>
  </g>
  <g transform="translate(32.77,19.99)">
    <path fill="none" d="M-0.53,-0.29 L0.53,0.29 " class="primitive"/>
  </g>
  <g transform="translate(16.35,28.2)">
    <path fill="none" d="M0.98,-0.39 L-0.98,0.39 " class="primitive"/>
  </g>
  <g transform="translate(18.33,29.79)">
    <path fill="none" d="M0.07,-1.2 L-0.07,1.2 " class="primitive"/>
  </g>
  <g transform="translate(19.98,33.3)">
    <path fill="none" d="M-0.73,-0.44 L0.73,0.44 " class="primitive"/>
  </g>
</g>
<g stroke-width="0.95" stroke="#D3D3D3" id="img-e6e2181c-2">
</g>
<g font-size="4" stroke="#000000" stroke-opacity="0.000" fill="#000000" id="img-e6e2181c-3">
</g>
<g stroke-width="0" stroke="#000000" stroke-opacity="0.000" id="img-e6e2181c-4">
  <g transform="translate(22.42,23.24)" fill="#009AFA">
    <circle cx="0" cy="0" r="1.19" class="primitive"/>
  </g>
  <g transform="translate(14,32.81)" fill="#E36F47">
    <circle cx="0" cy="0" r="1.19" class="primitive"/>
  </g>
  <g transform="translate(31.16,19.11)" fill="#3EA44E">
    <circle cx="0" cy="0" r="1.19" class="primitive"/>
  </g>
  <g transform="translate(26.69,20.29)" fill="#000000">
    <circle cx="0" cy="0" r="1.19" class="primitive"/>
  </g>
  <g transform="translate(34.38,20.87)" fill="#000000">
    <circle cx="0" cy="0" r="1.19" class="primitive"/>
  </g>
  <g transform="translate(3.12,3.12)" fill="#000000">
    <circle cx="0" cy="0" r="1.19" class="primitive"/>
  </g>
  <g transform="translate(18.48,27.36)" fill="#000000">
    <circle cx="0" cy="0" r="1.19" class="primitive"/>
  </g>
  <g transform="translate(14.23,29.04)" fill="#000000">
    <circle cx="0" cy="0" r="1.19" class="primitive"/>
  </g>
  <g transform="translate(18.19,32.22)" fill="#000000">
    <circle cx="0" cy="0" r="1.19" class="primitive"/>
  </g>
  <g transform="translate(21.77,34.38)" fill="#000000">
    <circle cx="0" cy="0" r="1.19" class="primitive"/>
  </g>
</g>
<g font-size="4" stroke="#000000" stroke-opacity="0.000" fill="#000000" id="img-e6e2181c-5">
</g>
</svg>
